<svg width="120" height="60" viewBox="0 0 120 60" fill="none" xmlns="http://www.w3.org/2000/svg">
<path fill-rule="evenodd" clip-rule="evenodd" d="M43.4827 11.9524H51.9648L30.5472 48.8602L8.98856 11.9524H17.6636L30.5472 34.1716L43.4827 11.9524Z" fill="#41B883"/>
<path fill-rule="evenodd" clip-rule="evenodd" d="M35.4667 11.9449H43.5339L30.5359 34.2105L17.6422 11.9449H25.5833L30.5359 20.5168L35.4667 11.9449Z" fill="#35495E"/>
<path fill-rule="evenodd" clip-rule="evenodd" d="M57.0261 19.2312C57.0261 18.9589 57.1772 18.732 57.4795 18.5505C57.7818 18.369 58.0978 18.2782 58.4276 18.2782C58.8856 18.2782 59.1696 18.4506 59.2795 18.7955L64.1161 34.9686L68.9252 18.7955C69.0534 18.4507 69.3282 18.2782 69.7496 18.2782C70.0977 18.2782 70.4229 18.378 70.7252 18.5777C71.0275 18.7774 71.1786 19.0043 71.1786 19.2584C71.1786 19.2765 71.1741 19.3038 71.1649 19.3401C71.1557 19.3764 71.1511 19.4127 71.1511 19.449L65.5726 37.5553C65.3711 38.0817 64.8856 38.3449 64.1161 38.3449C63.3467 38.3449 62.8795 38.0817 62.7146 37.5553L57.0813 19.449C57.0447 19.3401 57.0264 19.2675 57.0264 19.2312H57.0261ZM71.3951 33.1715V26.0925C71.3951 25.8747 71.5096 25.6841 71.7386 25.5207C71.9677 25.3573 72.2379 25.2757 72.5493 25.2757C72.8425 25.2757 73.1035 25.3619 73.3325 25.5343C73.5615 25.7068 73.676 25.8928 73.676 26.0925V33.1714C73.676 33.9883 73.9875 34.7234 74.6104 35.3769C75.2333 36.0303 75.9753 36.3571 76.8363 36.3571C77.6791 36.3571 78.4119 36.0349 79.0348 35.3905C79.6576 34.7461 79.9691 34.0064 79.9691 33.1714V26.0648C79.9691 25.8652 80.0836 25.6837 80.3126 25.5203C80.5416 25.3569 80.8118 25.2753 81.1233 25.2753C81.4531 25.2753 81.7233 25.3524 81.934 25.5067C82.1447 25.661 82.25 25.847 82.25 26.0648V33.1715C82.25 34.5692 81.7141 35.7898 80.6424 36.8335C79.5707 37.8773 78.302 38.3991 76.8364 38.3991C75.3524 38.3991 74.0746 37.8773 73.0028 36.8335C71.9311 35.7898 71.3952 34.5692 71.3952 33.1715H71.3951ZM84.115 33.117V30.2581C84.115 28.8604 84.6509 27.6534 85.7226 26.6369C86.7943 25.6204 88.0813 25.1121 89.5836 25.1121C91.0126 25.1121 92.2492 25.5886 93.2935 26.5416C94.3378 27.4945 94.8599 28.688 94.8599 30.122C94.8599 30.6484 94.7958 31.0704 94.6675 31.3881C94.5393 31.7058 94.3423 31.9326 94.0767 32.0688C93.811 32.2049 93.5637 32.2912 93.3347 32.3275C93.1057 32.3638 92.7988 32.3819 92.4141 32.3819H86.3957V33.1987C86.3957 34.1971 86.7576 34.9958 87.4812 35.5948C88.2049 36.1938 89.1438 36.4933 90.298 36.4933C90.9026 36.4933 91.4293 36.4025 91.8781 36.221C92.327 36.0395 92.6888 35.8625 92.9636 35.6901C93.2384 35.5176 93.4582 35.4314 93.6231 35.4314C93.8796 35.4314 94.0995 35.5449 94.2827 35.7718C94.4659 35.9987 94.5575 36.2301 94.5575 36.466C94.5575 36.8835 94.1407 37.3101 93.3071 37.7457C92.4736 38.1814 91.443 38.3992 90.2156 38.3992C88.4202 38.3992 86.9545 37.9136 85.8187 36.9425C84.6828 35.9714 84.1149 34.6963 84.1149 33.1171L84.115 33.117ZM86.3958 30.8571H91.4797C91.9561 30.8571 92.2767 30.7981 92.4416 30.6802C92.6065 30.5622 92.6889 30.3307 92.6889 29.9859C92.6889 29.1691 92.3866 28.4521 91.7821 27.8349C91.1775 27.2177 90.4355 26.9092 89.5561 26.9092C88.6951 26.9092 87.9531 27.195 87.3302 27.7668C86.7073 28.3386 86.3959 29.0419 86.3959 29.8769L86.3958 30.8571ZM96.0107 36.9288C96.0107 36.5294 96.1481 36.1891 96.4229 35.9078C96.6977 35.6264 97.0367 35.4857 97.4397 35.4857C97.8244 35.4857 98.1542 35.6264 98.429 35.9078C98.7038 36.1891 98.8412 36.5295 98.8412 36.9288C98.8412 37.31 98.7038 37.6412 98.429 37.9226C98.1542 38.2039 97.8244 38.3446 97.4397 38.3446C97.0367 38.3446 96.6977 38.2039 96.4229 37.9226C96.1481 37.6412 96.0107 37.31 96.0107 36.9288ZM98.0409 43.4362C98.0409 43.1458 98.1325 42.9053 98.3157 42.7147C98.4989 42.5241 98.7187 42.4288 98.9752 42.4288C99.6897 42.4288 100.157 42.1656 100.377 41.6392C100.597 41.1128 100.706 40.3233 100.706 39.2704V26.0651C100.706 25.8291 100.812 25.6385 101.023 25.4933C101.233 25.3481 101.503 25.2755 101.833 25.2755C102.163 25.2755 102.438 25.3481 102.658 25.4933C102.877 25.6385 102.987 25.8291 102.987 26.0651V39.2704C102.987 40.8497 102.676 42.1021 102.053 43.0278C101.43 43.9536 100.487 44.4164 99.2226 44.4164C98.4348 44.4164 98.0409 44.0897 98.0409 43.4362L98.0409 43.4362ZM100.404 20.4289C100.404 20.0841 100.542 19.7846 100.816 19.5304C101.091 19.2763 101.43 19.1493 101.833 19.1493C102.218 19.1493 102.548 19.2763 102.822 19.5304C103.097 19.7846 103.235 20.0841 103.235 20.4289C103.235 20.7738 103.097 21.0779 102.822 21.3411C102.548 21.6043 102.218 21.7359 101.833 21.7359C101.448 21.7359 101.114 21.6043 100.83 21.3411C100.546 21.0779 100.404 20.7738 100.404 20.4289H100.404ZM104.688 36.3296C104.688 36.0936 104.765 35.8622 104.921 35.6353C105.077 35.4084 105.265 35.295 105.485 35.295C105.631 35.295 105.842 35.4039 106.117 35.6217C106.391 35.8395 106.785 36.0528 107.298 36.2615C107.811 36.4703 108.416 36.5747 109.112 36.5747C110.028 36.5747 110.692 36.4113 111.104 36.0846C111.517 35.7578 111.723 35.3494 111.723 34.8593C111.723 34.2603 111.494 33.7838 111.036 33.4299C110.578 33.0759 110.019 32.8082 109.359 32.6267C108.7 32.4452 108.04 32.2455 107.381 32.0277C106.721 31.8098 106.162 31.4468 105.704 30.9385C105.246 30.4303 105.017 29.7587 105.017 28.9237C105.017 27.8891 105.388 26.9951 106.13 26.2418C106.872 25.4885 108.004 25.1119 109.524 25.1119C110.495 25.1119 111.384 25.2616 112.19 25.5612C112.996 25.8607 113.399 26.201 113.399 26.5822C113.399 26.8 113.312 27.045 113.138 27.3173C112.964 27.5896 112.749 27.7257 112.492 27.7257C112.419 27.7257 112.066 27.5941 111.434 27.3309C110.802 27.0677 110.174 26.9361 109.552 26.9361C108.709 26.9361 108.081 27.1312 107.669 27.5215C107.257 27.9118 107.051 28.352 107.051 28.842C107.051 29.3503 107.28 29.7496 107.738 30.04C108.196 30.3305 108.759 30.5574 109.428 30.7207C110.097 30.8841 110.761 31.0838 111.42 31.3198C112.08 31.5557 112.639 31.9596 113.097 32.5314C113.555 33.1031 113.784 33.8428 113.784 34.7504C113.784 35.8758 113.381 36.7652 112.575 37.4187C111.768 38.0721 110.642 38.3989 109.194 38.3989C107.949 38.3989 106.886 38.1765 106.007 37.7318C105.127 37.2871 104.688 36.8197 104.688 36.3296L104.688 36.3296Z" fill="#010101"/>
</svg>
