<svg width="90" height="90" viewBox="0 0 90 90" fill="none" xmlns="http://www.w3.org/2000/svg">
<g clip-path="url(#clip0_327_5181)">
<path d="M12.5437 81.0056L5.32124 0.00280762H84.6787L77.4506 80.9944L44.9494 90L12.5437 81.0056Z" fill="#E44D26"/>
<path d="M71.2603 75.8362L77.4394 6.62622H45V83.1178L71.2603 75.8362Z" fill="#F16529"/>
<path d="M44.9663 16.5601H20.0869L22.7672 46.6032H45V36.6694H31.8544L30.9459 26.4966H45V16.5601H44.9663ZM45 62.4376L44.9578 62.4488L33.8934 59.4619L33.1903 51.5391H23.2116L24.6038 67.1372L44.955 72.7622L45 72.7482V62.4376Z" fill="#EBEBEB"/>
<path d="M44.9663 46.6032H57.2006L56.0756 59.4844L44.9944 62.4741V72.8101L65.3625 67.1654L68.0906 36.6638H45L44.9663 46.6032ZM69.615 19.2263L69.8513 16.5601H44.9606V26.4938H68.9569L69.1538 24.2607L69.615 19.2263Z" fill="white"/>
</g>
<defs>
<clipPath id="clip0_327_5181">
<rect width="90" height="90" fill="white"/>
</clipPath>
</defs>
</svg>
