<svg width="120" height="70" viewBox="0 0 120 70" fill="none" xmlns="http://www.w3.org/2000/svg">
<path d="M16.147 6.01294L17.237 8.40461C17.4743 8.83603 17.7505 9.23653 18.061 9.59927C18.974 10.6644 19.843 11.7809 20.621 12.9768C22.469 15.8083 23.716 18.9524 24.607 22.3568C25.141 24.4358 25.431 26.5661 25.453 28.7221C25.543 35.1656 23.649 40.6991 19.819 45.2981C19.1984 46.0271 18.5282 46.6962 17.815 47.2989C17.435 47.2989 17.258 46.9489 17.102 46.6491C16.802 46.0658 16.634 45.4276 16.545 44.7789C16.411 43.9996 16.322 43.2203 16.367 42.4141V42.0501C16.345 41.9719 16.011 6.19611 16.144 6.01411L16.147 6.01294Z" fill="#599636"/>
<path d="M16.147 5.93604C16.102 5.83104 16.057 5.91037 16.013 5.9617C16.035 6.48087 15.879 6.9487 15.633 7.39087C15.366 7.8342 15.009 8.1702 14.653 8.5342C12.671 10.535 11.113 12.9512 9.865 15.6532C8.217 19.2909 7.349 23.1875 7.105 27.293C6.995 28.7747 7.505 33.9967 7.907 35.5029C8.997 39.5045 10.957 42.8552 13.507 45.7649C14.131 46.4649 14.799 47.1159 15.489 47.7389C15.689 47.7389 15.712 47.5312 15.756 47.3749C15.8437 47.0431 15.9106 46.7042 15.956 46.361C16.156 45.0625 16.268 43.7629 16.401 42.4644L16.156 5.93604H16.147Z" fill="#6CAC48"/>
<path d="M17.24 48.8833C17.285 48.286 17.54 47.7925 17.797 47.299C17.53 47.1707 17.329 46.9093 17.173 46.6223C17.039 46.3622 16.928 46.039 16.839 45.7648C16.527 44.674 16.459 43.5307 16.371 42.413V41.7363C16.261 41.8413 16.237 42.7233 16.237 42.854C16.17 44.0487 16.037 45.2188 15.837 46.361C15.77 46.8277 15.727 47.2967 15.481 47.712C15.481 47.7645 15.481 47.817 15.503 47.894C15.903 49.2707 16.015 50.6742 16.083 52.1033V52.6225C16.083 53.2455 16.061 53.116 16.506 53.3225C16.684 53.4007 16.886 53.4275 17.063 53.5827C17.197 53.5827 17.219 53.4543 17.219 53.3493L17.152 52.4918V50.1002C17.13 49.6848 17.197 49.2683 17.242 48.8787L17.24 48.8833Z" fill="#C2BFBF"/>
<path d="M34.1507 38.0174V40.4918C34.1484 40.5898 34.1531 40.6878 34.165 40.7848C34.1926 41.0779 34.3468 41.2566 34.5735 41.3388C34.785 41.4038 34.9999 41.4527 35.2168 41.4853C35.3424 41.502 35.3842 41.5663 35.3985 41.7236C35.4128 42.2775 35.371 42.3431 34.9104 42.3097C33.8362 42.2442 32.761 42.2287 31.6868 42.3097H31.5846C31.2497 42.3264 31.2221 42.293 31.2221 41.9023C31.2221 41.8368 31.2364 41.7558 31.2364 41.6902C31.2364 41.5711 31.3059 41.5115 31.4039 41.5115C31.6286 41.4794 31.8369 41.4138 32.0472 41.365C32.3403 41.284 32.5067 41.0719 32.5353 40.73C32.5762 40.356 32.5762 39.9652 32.5762 39.5899L32.5905 35.2274C32.5951 35.1008 32.5687 34.9754 32.5144 34.8657C32.4602 34.756 32.3803 34.6666 32.2841 34.6079C32.0316 34.4442 31.7645 34.3132 31.4876 34.2171C31.4039 34.185 31.3202 34.1695 31.2507 34.1194C31.0465 34.0051 31.0414 33.7942 31.2364 33.6632C31.3059 33.6155 31.3896 33.5822 31.4733 33.5655C32.3202 33.4197 33.1522 33.1742 33.9567 32.8328C34.1242 32.7673 34.166 32.7852 34.1814 32.9794C34.1957 33.0985 34.1814 33.2415 34.1671 33.3534C34.1395 33.5655 34.1395 33.7763 34.1395 33.9729C34.1395 34.0539 34.1538 34.1361 34.2232 34.185C34.2927 34.2338 34.3631 34.185 34.4275 34.1373C34.7205 33.8752 35.0136 33.6322 35.3342 33.4225C35.7937 33.1295 36.2839 32.8686 36.8148 32.7876C37.4582 32.6899 38.0147 32.8852 38.5038 33.3737C38.706 33.5849 38.8841 33.8255 39.0337 34.0897C39.1736 34.3279 39.1869 34.3339 39.3687 34.1707C39.8997 33.7144 40.4572 33.3082 41.0576 33.0151C41.6856 32.7054 42.3279 32.6577 42.9692 32.9174C43.6247 33.1938 44.072 33.7311 44.3375 34.4637C44.5621 35.0499 44.6581 35.655 44.6581 36.2864V40.649C44.6581 40.9421 44.7602 41.1256 45.0073 41.2685C45.2728 41.3876 45.5659 41.4472 45.8446 41.5127C46.0264 41.5604 46.0264 41.5604 46.0264 41.7748C45.9988 42.3109 45.957 42.3443 45.5097 42.3109C44.3897 42.2377 43.2671 42.2377 42.1472 42.3109C41.9225 42.3276 41.9225 42.3276 41.9103 42.0667V41.9857C41.896 41.5449 41.896 41.5449 42.2595 41.4496L42.622 41.3352C42.7448 41.3015 42.8543 41.2205 42.9328 41.1053C43.0114 40.9901 43.0544 40.8474 43.0549 40.7003L43.0958 39.4792L43.0682 36.2888C43.0575 36.004 43.0057 35.7233 42.915 35.4585C42.5658 34.4649 41.7989 34.1075 41.0586 34.2052C40.5001 34.2707 40.012 34.5304 39.5515 34.9057C39.4534 34.9867 39.384 35.0844 39.3983 35.2476C39.5239 36.29 39.4391 37.3324 39.4544 38.3736V40.6371C39.4544 41.0445 39.5943 41.2399 39.9293 41.3376L40.5726 41.5008C40.6706 41.5175 40.7257 41.5663 40.7257 41.6962V41.8153C40.7115 42.2716 40.6849 42.2918 40.2928 42.2871C39.1767 42.2216 38.0596 42.2394 36.9578 42.2871C36.58 42.3038 36.5494 42.2549 36.5667 41.8106C36.581 41.5485 36.6076 41.5342 36.8179 41.4853L37.2774 41.3876C37.6859 41.2899 37.836 41.1113 37.8635 40.6061L37.9044 39.5149L37.8768 36.2424C37.8492 35.8349 37.7747 35.4442 37.5837 35.0701C37.305 34.4673 36.869 34.1588 36.2716 34.1254C35.6712 34.0777 35.1412 34.3375 34.6378 34.6615C34.2886 34.8998 34.1354 35.1821 34.163 35.655V38.0317L34.1507 38.0174ZM60.4416 38.1163V40.412C60.4439 40.5752 60.4531 40.7382 60.4692 40.9004C60.4752 41.0085 60.511 41.1114 60.5714 41.1937C60.6318 41.276 60.7135 41.3332 60.8041 41.3567C61.0449 41.4385 61.293 41.4877 61.5434 41.5032C61.6833 41.5199 61.7109 41.5842 61.7252 41.7152V41.8296C61.7109 42.3991 61.6557 42.4646 61.1809 42.4324C60.1189 42.3514 59.06 42.3669 57.9991 42.4324L57.5906 42.4491C57.5069 42.4491 57.4885 42.4014 57.465 42.3347C57.4243 42.1093 57.4243 41.8764 57.465 41.6509C57.4793 41.5532 57.5345 41.5318 57.6182 41.5044C57.8224 41.4722 57.996 41.4234 58.19 41.3853C58.5393 41.2876 58.6649 41.1232 58.6781 40.7014L58.719 39.3338V35.3286C58.719 35.0356 58.6209 34.8569 58.3983 34.7258C58.1471 34.5626 57.8817 34.4494 57.6019 34.3351C57.5181 34.3029 57.4344 34.2696 57.365 34.2207C57.1832 34.0742 57.1607 33.8633 57.3374 33.7001C57.4166 33.6241 57.5139 33.5784 57.6162 33.5691C58.5096 33.4059 59.3745 33.1783 60.2119 32.7876C60.3099 32.7399 60.3518 32.7709 60.3936 32.8686C60.4355 32.9663 60.4498 33.0806 60.4345 33.1938L60.3936 33.9586C60.3936 34.0563 60.3528 34.1969 60.4212 34.235C60.5049 34.3005 60.5611 34.154 60.6305 34.1159C61.0426 33.7126 61.4977 33.3735 61.9845 33.1068C62.4175 32.8686 62.8627 32.7161 63.3661 32.7494C64.3015 32.815 64.9713 33.3689 65.4033 34.3291C65.6279 34.8342 65.7239 35.387 65.7658 35.9576L65.8066 37.149L65.8209 40.7467C65.8352 41.0231 65.9189 41.203 66.1558 41.3007C66.4014 41.3962 66.6535 41.4671 66.9094 41.5127C67.1341 41.5449 67.1463 41.5937 67.1606 41.838V41.919C67.133 42.4729 67.1045 42.4884 66.6296 42.4551C65.5885 42.3899 64.5451 42.3899 63.504 42.4551C63.3641 42.4717 63.2252 42.4551 63.0955 42.4717C63.0118 42.4717 62.9556 42.4551 62.9423 42.3574C62.9148 42.1453 62.8862 41.9345 62.9281 41.7057C62.9423 41.608 62.9842 41.5592 63.0812 41.5425L63.7245 41.4234C63.9492 41.3579 64.0737 41.1851 64.1023 40.9469L64.1299 40.4906L64.1156 37.0882C64.1156 36.6974 64.1013 36.3067 64.0319 35.9159C63.8644 35.082 63.3202 34.4864 62.5819 34.403C61.9386 34.322 61.3565 34.5173 60.8235 34.9236C60.558 35.119 60.4457 35.3953 60.4457 35.7372V38.1961C60.4457 38.1485 60.4457 38.1485 60.46 38.1485L60.4416 38.1163Z" fill="#47474A"/>
<path d="M101.313 33.5083C101.16 32.3194 100.782 31.2615 100.127 30.3335C99.5553 29.5137 98.816 28.8753 97.9771 28.4774C97.0989 28.0545 96.1625 27.9235 95.2139 27.8913C94.8228 27.8746 89.4926 27.9723 89.1015 27.8913C89.0034 27.8746 88.934 27.908 88.8768 28.0057C88.8074 28.1248 88.7369 28.2499 88.6951 28.3798C88.5276 28.8205 88.5276 28.7872 88.932 28.8515C89.2669 28.917 89.5875 28.9492 89.9092 29.0636C90.2022 29.1779 90.4116 29.3733 90.481 29.7474C90.5086 29.9261 90.5372 35.6563 90.5372 38.3272L90.481 40.2333C90.4667 40.3798 90.4534 40.5264 90.4116 40.6562C90.3554 40.8516 90.2584 41.0136 90.0909 41.097C89.9067 41.1982 89.708 41.2587 89.5048 41.2757C89.127 41.3233 89.0719 41.3412 88.9463 41.8297L88.9054 42.0084C88.8778 42.2204 88.8911 42.2526 89.0729 42.2526L93.2452 42.3002L94.879 42.2681L96.0094 42.1048C97.2929 41.8285 98.4376 41.209 99.4138 40.2166C99.9715 39.642 100.427 38.945 100.754 38.1652C101.145 37.2538 101.312 36.2591 101.354 35.2512C101.423 34.6818 101.395 34.0957 101.313 33.5095V33.5083ZM99.2892 35.8195C99.2331 36.8619 99.0523 37.8709 98.5918 38.7823C98.0057 39.9712 97.1684 40.8016 96.0104 41.0934C95.508 41.2126 95.0056 41.2721 94.4787 41.1911C94.1009 41.1435 93.7394 41.0934 93.3902 40.9469C92.7622 40.6848 92.5386 40.2321 92.5253 39.5173L92.511 29.7009C92.511 29.1148 92.7357 28.9861 93.0971 28.9683C93.6414 28.9206 94.1999 28.9361 94.7442 29.0004C95.3236 29.0658 95.8922 29.2262 96.4331 29.4769C96.835 29.6724 97.2074 29.9419 97.536 30.2751C98.2895 31.0257 98.7919 31.9668 99.0676 33.0747C99.2923 33.9706 99.3331 34.8819 99.2923 35.7933L99.2892 35.8195ZM112.911 37.4158C112.911 37.3182 112.911 37.2372 112.897 37.1395C112.771 36.2436 112.366 35.5598 111.739 35.0392C111.334 34.6973 110.874 34.4697 110.399 34.3065C110.315 34.2744 110.246 34.241 110.162 34.2255C110.176 34.1445 110.218 34.1278 110.26 34.1111C110.539 33.9479 110.804 33.7692 111.041 33.525C111.474 33.1021 111.756 32.5803 111.906 31.9453C111.99 31.6034 111.99 31.2615 111.962 30.9029C111.94 30.4835 111.836 30.0754 111.66 29.7089C111.483 29.3424 111.238 29.027 110.943 28.786C110.3 28.232 109.547 28.0045 108.766 27.9878C107.259 27.9556 105.739 27.9878 104.232 27.9878C103.8 27.9878 103.368 28.02 102.92 27.9402C102.837 27.9235 102.716 27.8925 102.655 28.0057C102.553 28.2177 102.43 28.4286 102.389 28.6728C102.375 28.7872 102.404 28.8515 102.515 28.8682L103.478 29.0314C103.856 29.0969 104.121 29.3411 104.148 29.7319C104.175 30.0019 104.189 30.2736 104.189 30.5456L104.161 33.5894L104.147 39.6126C104.147 39.97 104.106 40.3131 104.049 40.6705C104.035 40.784 103.993 40.8904 103.929 40.977C103.865 41.0637 103.78 41.1268 103.686 41.1589C103.407 41.2566 103.142 41.3543 102.849 41.3543C102.771 41.3457 102.692 41.3683 102.626 41.4185C102.56 41.4687 102.511 41.5435 102.486 41.6307C102.43 41.7772 102.384 41.9404 102.361 42.087C102.333 42.2824 102.375 42.3491 102.543 42.3252C102.668 42.3086 107.273 42.4396 108.138 42.3419C108.655 42.2764 109.159 42.1954 109.673 42.0167C110.551 41.6915 111.362 41.2185 112.003 40.4203C112.534 39.7687 112.841 38.9872 112.868 38.0758C112.909 37.8638 112.909 37.6529 112.909 37.4242L112.911 37.4158ZM106.143 30.7445L106.184 29.4424C106.184 29.1982 106.268 29.085 106.477 29.035C106.812 28.954 107.147 28.9873 107.482 29.0028C107.817 29.035 108.137 29.0838 108.472 29.1982C109.085 29.4102 109.561 29.8177 109.84 30.5003C109.967 30.8107 110.034 31.1499 110.036 31.4938C110.05 31.9501 110.021 32.3897 109.868 32.8281C109.631 33.4309 109.255 33.8217 108.71 33.936C108.165 34.0504 106.617 34.0015 106.38 34.0015C106.171 34.0015 106.155 33.9694 106.155 33.7252V32.1919C106.122 31.7152 106.118 31.2363 106.141 30.7588L106.143 30.7445ZM110.677 39.503C110.44 40.2357 110.007 40.742 109.393 41.016C109.058 41.1625 108.723 41.2543 108.372 41.228C107.939 41.2114 107.507 41.228 107.075 41.1304C106.489 40.9838 106.224 40.3322 106.182 39.8604C106.112 39.0301 106.154 38.1831 106.141 37.5648V35.4156C106.141 35.1535 106.169 35.0737 106.406 35.0737L107.719 35.0904L108.612 35.2095C109.24 35.3727 109.812 35.6503 110.259 36.2186C110.622 36.6748 110.818 37.2276 110.86 37.8304C110.9 38.3999 110.874 38.9538 110.692 39.4911L110.677 39.503Z" fill="#C2BFBF"/>
<path d="M75.2203 34.5984L75.5829 34.6639C75.9739 34.6806 76.4345 34.5174 76.5733 33.8824C76.6499 33.5791 76.6499 33.2565 76.5733 32.9532C76.4896 32.9532 76.4477 33.0342 76.4059 33.0676C76.1965 33.263 75.9596 33.3773 75.7085 33.4095C75.2061 33.475 74.7037 33.4416 74.2156 33.2308L73.5314 32.9544C73.0542 32.7721 72.5521 32.6953 72.0508 32.7281C71.3391 32.7936 70.6692 33.07 70.0412 33.4607C69.3714 33.8836 68.8976 34.5186 68.6729 35.3823C68.5473 35.8874 68.533 36.4068 68.5892 36.9286C68.7291 38.1175 69.259 38.9479 70.2077 39.3875C70.2638 39.4042 70.3057 39.4351 70.3608 39.453C70.4864 39.534 70.5007 39.6162 70.3884 39.7294L70.0392 40.0058L69.2018 40.6086C68.9925 40.7551 68.9649 40.8707 69.0344 41.1292C69.1174 41.4333 69.2721 41.7041 69.4806 41.9107C69.6721 42.1024 69.889 42.2565 70.1229 42.367C70.2761 42.448 70.2761 42.4861 70.1372 42.629L69.3407 43.2962C69.0752 43.5344 68.8097 43.7727 68.5871 44.0777C68.4323 44.2709 68.3208 44.5058 68.2623 44.7614C68.2039 45.017 68.2004 45.2854 68.2522 45.543C68.356 46.1081 68.6096 46.6208 68.9772 47.0083C69.3401 47.4003 69.7814 47.6801 70.2608 47.822C71.0419 48.0841 71.8517 48.0984 72.6471 47.9197C73.7908 47.6754 74.7915 47.0857 75.5777 46.0803C76.122 45.4131 76.4426 44.6316 76.4712 43.6976C76.5017 43.1575 76.367 42.6222 76.091 42.1871C75.815 41.7519 75.4157 41.445 74.964 41.321L74.2105 41.1578L71.9078 40.9195C71.6566 40.9028 71.4054 40.854 71.1961 40.7075C70.9306 40.5121 70.8612 40.138 71.0286 39.8938C71.1542 39.7151 71.3074 39.6007 71.5035 39.584L71.9497 39.5364C72.8322 39.4317 73.6606 38.9913 74.3075 38.2831C74.6529 37.9102 74.8998 37.4299 75.0192 36.8988C75.1867 36.1983 75.1867 35.4693 75.0468 34.7545C75.0059 34.5758 75.0192 34.5591 75.2142 34.5913L75.2203 34.5984ZM71.7996 42.7077C71.8833 42.7243 71.9671 42.7077 72.0508 42.7077C72.6369 42.7398 73.2373 42.7887 73.8092 42.9698C73.9959 43.0341 74.1779 43.1158 74.3534 43.214C74.912 43.5714 75.1213 44.1909 75.0508 44.858C74.9671 45.5906 74.6179 46.1112 74.0736 46.4543C73.7111 46.6926 73.3057 46.7962 72.8871 46.8451C72.7339 46.8618 72.594 46.8451 72.4408 46.8451C71.9528 46.8618 71.4779 46.7974 71.0174 46.5687C70.6968 46.4222 70.4313 46.2113 70.1944 45.9171C69.7063 45.3476 69.4796 44.3052 70.2087 43.4582C70.6549 42.9817 71.1583 42.6445 71.7996 42.7077ZM73.3905 37.6279C73.0974 38.4904 72.4551 38.7513 71.8139 38.637C71.2278 38.5393 70.7948 38.1652 70.5171 37.5457C70.1546 36.7154 70.0575 35.8541 70.2659 34.957C70.419 34.2899 70.7683 33.7847 71.3819 33.6704C72.1631 33.5072 72.9136 33.8336 73.3078 34.7449C73.512 35.1857 73.6008 35.7218 73.6008 36.4866C73.5866 36.7964 73.5314 37.2193 73.3915 37.6267L73.3905 37.6279ZM55.8088 36.52C55.6832 35.6408 55.4044 34.8426 54.8877 34.1755C54.1198 33.1819 53.1437 32.7459 52.0408 32.7423C51.0779 32.7257 50.1722 33.0521 49.3614 33.6382C48.5643 34.1947 47.9801 35.086 47.7286 36.1292C47.4917 37.074 47.504 38.0353 47.6878 38.9943C48.1759 41.5676 49.8791 42.6731 51.9152 42.5111C52.5157 42.4634 53.0875 42.2347 53.6307 41.925C54.4405 41.4842 55.0266 40.7849 55.431 39.8569C55.7516 39.092 55.8905 38.2772 55.8772 37.3491L55.8078 36.5188L55.8088 36.52ZM53.8278 40.1344C53.728 40.5007 53.5389 40.8252 53.2835 41.0681C53.0282 41.311 52.7177 41.4618 52.3901 41.5021C51.7774 41.5997 51.2035 41.4211 50.6878 40.9969C50.3156 40.6775 50.0141 40.2588 49.8087 39.7758C49.2368 38.4082 49.1388 36.9763 49.4308 35.511C49.5249 35.0575 49.7283 34.6449 50.017 34.322C50.5337 33.7681 51.1331 33.6382 51.8039 33.8014C52.4472 33.9646 52.9343 34.3709 53.3356 34.9904C53.7369 35.6098 53.9217 36.3246 54.0331 37.0751C54.0892 37.4492 54.0892 37.84 54.1025 38.0842C54.1025 38.8657 54.0463 39.5138 53.837 40.1356L53.8278 40.1344ZM86.2995 36.651C86.1974 35.7063 85.8952 34.8438 85.3223 34.1278C84.5687 33.1676 83.5915 32.7602 82.504 32.7435C81.5687 32.7269 80.7038 33.0366 79.9083 33.5739C79.0148 34.1934 78.4012 35.0714 78.1643 36.2603C77.8813 37.5574 78 38.9294 78.4992 40.1344C78.9587 41.2745 79.7409 42.0072 80.7742 42.3324C81.9179 42.6898 83.0074 42.5278 84.0674 41.925C84.9884 41.4044 85.644 40.5907 86.0208 39.4828C86.2454 38.8311 86.3271 38.1318 86.3414 37.317C86.3557 37.1705 86.3271 36.9096 86.3006 36.6498L86.2995 36.651ZM84.3737 39.9236C84.1491 40.8028 83.6763 41.3722 82.8808 41.5033C82.2947 41.6009 81.7372 41.4377 81.2337 41.047C80.8008 40.7051 80.4945 40.2488 80.2708 39.7127C80.0196 39.1433 79.8797 38.5405 79.8246 37.9222C79.7409 37.1573 79.7409 36.4092 79.894 35.6432C79.9232 35.4921 79.9653 35.3449 80.0196 35.2036C80.4107 34.0635 81.2756 33.5429 82.2947 33.8038C82.9789 33.9825 83.4945 34.4233 83.8856 35.0904C84.2634 35.7421 84.4442 36.458 84.5289 37.2348C84.5698 37.5445 84.5851 37.8698 84.5698 38.1461C84.5698 38.7811 84.5289 39.3672 84.3655 39.9367L84.3737 39.9236Z" fill="#47474A"/>
</svg>
