<svg width="90" height="90" viewBox="0 0 90 90" fill="none" xmlns="http://www.w3.org/2000/svg">
<path d="M40.9204 0.961447C43.4079 -0.317657 46.5795 -0.323305 49.0049 0.961447L86.1441 19.9729C88.4668 21.1589 90.0215 23.511 89.9998 25.9421V64.0611C90.0153 66.5939 88.3082 68.9968 85.858 70.1602L48.9178 89.0841C47.6544 89.7182 46.227 90.0334 44.784 89.9972C43.341 89.9609 41.935 89.5745 40.712 88.878L29.6269 83.0613C28.8713 82.6519 28.0224 82.3272 27.4876 81.6636C27.9602 81.0876 28.7998 81.0142 29.4838 80.7601C31.0261 80.3139 32.4378 79.6306 33.8557 78.9078C34.2133 78.6819 34.6517 78.7666 34.9938 78.9699L44.4465 83.9338C45.1212 84.2868 45.8053 83.8209 46.3836 83.5244L82.6553 64.9364C83.103 64.7388 83.3518 64.3096 83.3145 63.8635V26.1115C83.3642 25.6033 83.044 25.1402 82.5371 24.9341L45.6902 6.09198C45.4779 5.95862 45.226 5.88694 44.9678 5.88643C44.7096 5.88593 44.4573 5.95662 44.2444 6.08916L7.45033 24.9708C6.95282 25.1769 6.61078 25.6343 6.67297 26.1426V63.8945C6.62944 64.3407 6.89063 64.7614 7.3415 64.9534L17.1736 69.9936C19.0206 70.8971 21.2873 71.4054 23.3209 70.7418C24.2108 70.4373 24.9769 69.893 25.5166 69.1819C26.0562 68.4708 26.3436 67.6269 26.3402 66.7633L26.3495 29.2373C26.306 28.681 26.8843 28.2208 27.4782 28.2772H32.2046C32.8265 28.2631 33.3147 28.8617 33.2307 29.4208L33.2214 67.184C33.2245 70.5385 31.7071 74.1867 28.2898 75.8328C24.0796 77.8094 18.8744 77.3943 14.714 75.494L4.14188 70.1856C1.65433 69.0561 -0.0154396 66.6165 0.000107654 64.0865V25.9675C0.0104507 24.7286 0.385523 23.5147 1.08644 22.4517C1.78736 21.3888 2.78862 20.5154 3.98641 19.9221L40.9204 0.961447ZM51.6293 27.385C56.9993 27.1026 62.7486 27.1986 67.5807 29.6015C71.3214 31.4425 73.3954 35.3053 73.4638 39.0833C73.358 39.5915 72.7735 39.8739 72.2386 39.8372C70.6839 39.8344 69.123 39.857 67.562 39.8287C66.8997 39.8513 66.5173 39.2979 66.4333 38.767C65.9856 36.9599 64.9004 35.1726 63.0285 34.3001C60.1554 32.9927 56.822 33.0577 53.6877 33.0859C51.3992 33.1988 48.9396 33.3767 47.0024 34.5965C45.5099 35.5227 45.0621 37.4202 45.5938 38.8941C46.0914 39.9755 47.4688 40.3229 48.5913 40.6447C55.0652 42.1808 61.9215 42.0566 68.2741 44.0529C70.9016 44.8774 73.4731 46.4812 74.3748 48.9801C75.5502 52.3289 75.0371 56.3328 72.4159 59.0209C70.289 61.2347 67.192 62.4093 64.0981 63.0926C59.9843 63.9256 55.7182 63.9453 51.5422 63.5726C47.615 63.166 43.5292 62.2286 40.4975 59.8003C37.9042 57.7559 36.6418 54.5709 36.7661 51.4988C36.7972 50.9792 37.3663 50.6178 37.9166 50.6602H42.5808C43.2089 50.6206 43.6691 51.1119 43.7002 51.6484C43.9894 53.3426 44.7014 55.178 46.3557 56.1662C49.5459 58.0355 53.5478 57.9056 57.1983 57.9593C60.2238 57.8378 63.6193 57.8011 66.0913 55.9827C67.3972 54.9464 67.7797 53.2155 67.4283 51.7247C67.0459 50.4653 65.5627 49.8808 64.3189 49.4658C57.929 47.6304 50.9949 48.2968 44.6672 46.2186C42.0988 45.3941 39.6144 43.8355 38.6287 41.4382C37.2512 38.0498 37.8824 33.8511 40.7835 31.2534C43.582 28.6697 47.6865 27.673 51.5733 27.3172L51.6293 27.385Z" fill="#8CC84B"/>
</svg>
