<svg width="100" height="100" viewBox="0 0 100 100" fill="none" xmlns="http://www.w3.org/2000/svg">
<path d="M50.0003 58.847C54.9321 58.847 58.9301 54.849 58.9301 49.9173C58.9301 44.9855 54.9321 40.9875 50.0003 40.9875C45.0686 40.9875 41.0706 44.9855 41.0706 49.9173C41.0706 54.849 45.0686 58.847 50.0003 58.847Z" fill="#00D8FF"/>
<path fill-rule="evenodd" clip-rule="evenodd" d="M50.0005 31.7614C61.9899 31.7614 73.1277 33.4817 81.5256 36.3728C91.6438 39.8563 97.8649 45.1363 97.8649 49.9174C97.8649 54.8996 91.2718 60.5089 80.4061 64.1089C72.1914 66.8306 61.3815 68.2514 50.0005 68.2514C38.3319 68.2514 27.2824 66.9178 18.9751 64.079C8.46494 60.4866 2.13455 54.8047 2.13455 49.9174C2.13455 45.1751 8.07441 39.9358 18.0504 36.4577C26.4796 33.5189 37.8924 31.7614 49.9989 31.7614H50.0005Z" stroke="#00D8FF" stroke-width="2.73408"/>
<path fill-rule="evenodd" clip-rule="evenodd" d="M34.1952 40.8916C40.1849 30.5057 47.239 21.7168 53.939 15.8862C62.0113 8.86126 69.6932 6.11009 73.8347 8.49831C78.1509 10.9873 79.7162 19.5012 77.4067 30.712C75.6623 39.188 71.491 49.2617 65.8053 59.1208C59.9758 69.2291 53.3008 78.1348 46.6922 83.9112C38.3298 91.2213 30.245 93.8668 26.0113 91.4251C21.9031 89.0577 20.332 81.2934 22.3028 70.9137C23.968 62.1436 28.1469 51.3791 34.1932 40.8915L34.1952 40.8916Z" stroke="#00D8FF" stroke-width="2.73408"/>
<path fill-rule="evenodd" clip-rule="evenodd" d="M34.2102 59.1473C28.2036 48.7731 24.114 38.2702 22.407 29.5539C20.3522 19.0519 21.805 11.0224 25.9428 8.62719C30.2547 6.13092 38.4126 9.02662 46.9717 16.6265C53.4431 22.3724 60.0882 31.0155 65.7904 40.8653C71.6366 50.9638 76.0183 61.1947 77.7228 69.8049C79.8796 80.7008 78.134 89.0261 73.9042 91.4746C69.8 93.8506 62.2897 91.3351 54.2814 84.4436C47.5151 78.6212 40.2761 69.6246 34.2102 59.1471V59.1473Z" stroke="#00D8FF" stroke-width="2.73408"/>
</svg>
