<svg width="89" height="49" viewBox="0 0 89 49" fill="none" xmlns="http://www.w3.org/2000/svg">
<path d="M6.06323 37.7221C6.91023 37.7221 7.71265 37.9227 8.11433 38.3239C8.1812 38.9485 7.6235 39.9515 7.26686 39.9515C6.84336 39.7955 6.44215 39.7054 5.95178 39.7054C3.92343 39.7054 2.91947 41.8011 2.91947 43.874C2.91947 45.1668 3.36526 45.9474 4.39151 45.9474C5.4837 45.9474 6.59818 45.2118 7.22228 44.6546C7.37831 44.766 7.57892 45.1227 7.57892 45.5239C7.57892 45.9697 7.44518 46.3932 7.04397 46.7944C6.3307 47.5077 5.12706 48.1095 3.38801 48.1095C1.38195 48.1095 0 46.9727 0 44.3203C0 40.8431 2.29583 37.7263 6.03676 37.7263L6.06323 37.7221ZM12.6164 45.8359C13.7085 45.8359 15.6928 43.9181 16.25 40.2636C16.2723 40.0407 16.2946 39.9738 16.3392 39.7509C16.0452 39.6483 15.7362 39.5956 15.4248 39.5949C14.6001 39.5949 13.7531 39.8401 12.9953 40.8654C12.2151 41.9576 11.8808 43.3172 11.8808 44.4099C11.8808 45.3456 12.1483 45.8364 12.5941 45.8364L12.6164 45.8359ZM9.02681 44.8329C9.02681 43.5178 9.4726 41.2215 11.1443 39.5498C12.5709 38.0787 14.3094 37.7216 15.8925 37.7216C16.9401 37.7216 18.3666 38.056 19.2582 38.2347C19.0353 39.2155 18.5003 42.9156 18.2552 45.0554C18.1437 45.9702 18.0991 47.2402 18.1437 47.7083C17.4082 48.0203 16.0262 48.1095 15.6468 48.1095C15.4471 48.1095 15.4016 47.1956 15.469 46.3263C15.493 46.0286 15.5226 45.7313 15.5577 45.4347C14.6884 46.8836 12.9721 48.1095 11.1666 48.1095C9.87381 48.1095 9.03053 47.0396 9.03053 44.8552L9.02681 44.8329ZM24.8041 37.7221C25.718 37.7221 26.5873 38.0564 26.989 38.4799C26.9667 39.1045 26.4763 40.1516 25.6957 39.8619C25.3613 39.7504 25.027 39.6622 24.5812 39.6622C23.9794 39.6622 23.4667 39.9297 23.4667 40.4864C23.4667 40.9099 23.7788 41.2225 25.2722 42.2696C26.3426 43.0498 26.7661 43.7407 26.7661 44.7215C26.7661 46.3491 25.2276 48.1099 22.5529 48.1099C21.4607 48.1099 20.5018 47.6865 20.1846 47.2407C19.7834 46.572 20.0954 45.2569 20.5422 45.4793C21.1217 45.7691 22.0801 46.0816 22.8603 46.0816C23.5958 46.0816 24.0639 45.7473 24.0639 45.3015C24.0639 44.923 23.7296 44.5882 22.3699 43.6298C21.2322 42.7828 20.876 42.0026 20.876 41.111C20.876 39.261 22.4549 37.7226 24.7767 37.7226L24.8041 37.7221ZM32.494 37.7221C33.4088 37.7221 34.2772 38.0564 34.6789 38.4799C34.6566 39.1045 34.1667 40.1516 33.3861 39.8619C33.0517 39.7504 32.7174 39.6622 32.2716 39.6622C31.6698 39.6622 31.1571 39.9297 31.1571 40.4864C31.1571 40.9099 31.4692 41.2225 32.9626 42.2696C34.0325 43.0498 34.456 43.7407 34.456 44.7215C34.456 46.3491 32.9175 48.1099 30.2428 48.1099C29.1506 48.1099 28.1921 47.6865 27.8801 47.2407C27.4789 46.572 27.7909 45.2569 28.2367 45.4793C28.8162 45.7691 29.7747 46.0816 30.5548 46.0816C31.2904 46.0816 31.7585 45.7473 31.7585 45.3015C31.7585 44.923 31.4241 44.5882 30.0644 43.6298C28.9277 42.7828 28.571 42.0026 28.571 41.111C28.571 39.261 30.1536 37.7226 32.4717 37.7226L32.494 37.7221ZM39.5143 45.8359C40.6069 45.8359 42.5907 43.9181 43.148 40.2636C43.1702 40.0407 43.193 39.9738 43.2376 39.7509C42.9434 39.6484 42.6343 39.5956 42.3228 39.5949C41.4981 39.5949 40.6511 39.8401 39.8928 40.8654C39.1126 41.9576 38.7783 43.3172 38.7783 44.4099C38.7783 45.3456 39.0458 45.8364 39.492 45.8364L39.5143 45.8359ZM35.9247 44.8329C35.9247 43.5178 36.3705 41.2215 38.0423 39.5498C39.4688 38.0787 41.2074 37.7216 42.7904 37.7216C43.838 37.7216 45.2655 38.056 46.1571 38.2347C45.9342 39.2155 45.3992 42.9156 45.154 45.0554C45.0426 45.9702 44.998 47.2402 45.0426 47.7083C44.307 48.0203 42.9251 48.1095 42.5461 48.1095C42.3465 48.1095 42.301 47.1956 42.3678 46.3263C42.3901 46.0366 42.4347 45.613 42.457 45.4347C41.5877 46.8836 39.8714 48.1095 38.0659 48.1095C36.7727 48.1095 35.9299 47.0396 35.9299 44.8552L35.9247 44.8329ZM51.194 40.6197C52.2156 38.9703 53.5567 37.7221 55.429 37.7221C57.0116 37.7221 57.5243 39.1932 57.2401 41.2884L56.6378 44.9662C56.4818 46.0589 56.3703 47.0391 56.3931 47.7083C55.8135 47.998 54.1191 48.1095 53.7402 48.1095C53.5841 48.1095 53.5614 46.8836 53.7624 45.5903L54.498 41.4667C54.6094 40.8166 54.5872 40.0402 53.963 40.0402C53.1379 40.0402 51.1768 41.3557 50.1956 46.7503C50.1283 47.1961 49.9505 47.4636 49.7048 47.6196C49.3705 47.8207 48.6572 47.999 47.2088 48.0213C47.4763 46.6616 47.8998 43.8745 48.2119 41.8243C48.5012 39.952 48.6131 38.7479 48.5462 38.2798C48.9256 38.1461 50.9145 37.7226 51.1318 37.7226C51.3779 37.7226 51.422 38.4135 51.1991 40.0908L51.1318 40.6248L51.194 40.6197ZM62.5176 45.8192C63.4928 45.8192 65.4826 43.991 66.0393 40.759C66.0626 40.5807 66.129 40.2464 66.1787 40.0453C65.8884 39.7778 65.51 39.5995 64.9081 39.5995C62.656 39.5995 61.6576 42.2929 61.6576 44.2367C61.6576 45.2843 62.0151 45.8192 62.5046 45.8192H62.5176ZM61.0465 48.1151C59.62 48.1151 58.7284 46.8446 58.7284 44.6602C58.7284 41.0488 60.9791 37.7272 64.7688 37.7272C65.4375 37.7272 66.0393 37.9055 66.4183 38.1284C66.6189 37.1031 67.087 33.9375 67.1148 33.0018C67.7385 32.8904 69.0763 32.6907 69.6781 32.6907C69.9242 32.6907 69.9911 32.9354 69.901 33.4926L68.2293 44.6838C68.1161 45.6976 68.0695 46.7177 68.09 47.7375C67.3772 48.0496 65.9279 48.1165 65.5499 48.1165C65.393 48.1165 65.3038 47.0911 65.3488 46.1773L65.4157 45.3971C64.3012 47.2249 62.7628 48.1165 61.0692 48.1165L61.0465 48.1151ZM74.1077 40.9369C75.2895 38.3063 76.6933 37.7267 77.6076 37.7267C77.8979 37.7267 78.3432 37.905 78.5438 38.1279C78.6334 38.8635 78.0539 40.3346 77.5408 40.8919C77.2728 40.7581 76.9394 40.6244 76.56 40.6244C75.8017 40.6244 74.3078 41.8062 73.3721 46.8933C73.3048 47.3173 73.1715 47.4956 72.9264 47.6071C72.5474 47.8299 71.0536 48.0083 70.3408 48.0305C70.6742 46.2023 71.2537 42.48 71.4771 40.2951C71.5439 39.7379 71.5699 38.7126 71.5216 38.3114C71.9451 38.1108 73.6173 37.7318 73.9958 37.7318C74.1969 37.7318 74.3533 38.9578 74.0399 40.942L74.1077 40.9369ZM81.9755 45.8359C83.0686 45.8359 85.0519 43.9181 85.6096 40.2636C85.6314 40.0407 85.6542 39.9738 85.6987 39.7509C85.4048 39.6483 85.0957 39.5956 84.7844 39.5949C83.9597 39.5949 83.1127 39.8401 82.3544 40.8654C81.5742 41.9576 81.2399 43.3172 81.2399 44.4099C81.2399 45.3456 81.5074 45.8364 81.9536 45.8364L81.9755 45.8359ZM78.3859 44.8329C78.3859 43.5178 78.8317 41.2215 80.5034 39.5498C81.9299 38.0787 83.6685 37.7216 85.2516 37.7216C86.2992 37.7216 87.7257 38.056 88.6182 38.2347C88.3953 39.2155 87.8599 42.9156 87.6152 45.0554C87.5037 45.9702 87.4587 47.2402 87.5037 47.7083C86.7682 48.0203 85.3862 48.1095 85.0068 48.1095C84.8072 48.1095 84.7621 47.1956 84.8285 46.3263C84.8526 46.0286 84.8824 45.7313 84.9181 45.4347C84.0484 46.8836 82.3326 48.1095 80.5266 48.1095C79.2334 48.1095 78.3906 47.0396 78.3906 44.8552L78.3859 44.8329Z" fill="#373535"/>
<path d="M62.5508 10.849C62.9998 16.079 54.769 21.0567 44.1669 21.9663C33.5649 22.8758 24.6096 19.3728 24.1584 14.1428C23.7072 8.91279 31.9402 3.93447 42.5423 3.02491C53.1443 2.11536 62.0996 5.61838 62.5508 10.849Z" fill="#BBE6FB"/>
<g opacity="0.35">
<path d="M42.8535 3.63817C38.8094 3.57241 34.0771 5.17809 30.5559 6.68173C30.1822 7.75692 29.9917 8.8872 29.9922 10.0255C29.9922 16.2294 35.594 21.2593 42.5046 21.2593C49.4151 21.2593 55.017 16.2294 55.017 10.0255C55.017 8.06208 54.4546 6.21747 53.4686 4.61179C50.6512 4.17387 46.7794 3.70477 42.8538 3.63845" fill="white"/>
</g>
<path d="M42.5046 3.63674C40.2654 3.50012 36.4067 4.66846 33.1888 5.83339C32.6864 7.01682 32.4277 8.2894 32.4283 9.57507C32.4283 15.0109 37.3568 19.4175 42.5703 19.4175C47.7496 19.4175 52.332 15.0038 52.7123 9.57507C52.8359 7.80726 52.2305 6.14149 51.3824 4.70559C48.0464 4.11802 44.5062 3.7589 42.5046 3.63702" fill="white"/>
<path d="M36.759 8.86145C37.0339 8.25319 37.4497 7.95528 37.853 7.44538C37.8083 7.32463 37.7102 6.92952 37.7102 6.7929C37.7105 6.49937 37.8272 6.21796 38.0348 6.0104C38.2423 5.80284 38.5238 5.6861 38.8173 5.6858C38.9571 5.68595 39.0956 5.71268 39.2255 5.76459C41.0579 4.36808 43.4702 3.75927 45.8948 4.3012C46.1143 4.35155 46.3318 4.41045 46.5467 4.47778C44.1508 4.14559 41.4505 4.9942 39.6132 6.47687C39.6693 6.60923 39.8249 6.98763 39.8249 7.14012C39.8249 7.7515 39.4293 7.90031 38.8179 7.90031C38.6822 7.90018 38.5477 7.8752 38.4211 7.82661C38.0061 8.38385 37.4976 9.44221 37.2488 10.1089C38.2646 11.0176 39.1824 11.3469 40.3785 11.7939C40.3757 11.7372 40.4196 11.6842 40.4196 11.6261C40.4196 9.7829 42.0423 8.28493 43.886 8.28493C45.5379 8.28493 46.9058 9.48614 47.1728 11.0621C47.997 10.5377 48.7941 10.1358 49.4015 9.36143C49.2598 9.19136 49.1067 8.69903 49.1067 8.4581C49.1067 7.90341 49.5568 7.45361 50.1115 7.45361C50.19 7.45361 50.2654 7.46494 50.3388 7.48195C50.6472 6.84818 50.8774 6.17643 51.0287 5.48371C48.1461 3.34941 42.5689 3.64078 42.5689 3.64078C42.5689 3.64078 38.1308 3.40921 35.1264 4.87374C35.3268 6.31927 35.9047 7.69963 36.7573 8.86456M50.5335 8.03013C50.6959 8.17275 50.8321 8.34262 50.936 8.5321C51.2053 9.01394 50.6648 9.46035 50.1101 9.46035C50.0547 9.45939 49.9995 9.4538 49.9451 9.44364C49.3201 10.4204 48.2255 11.6729 47.253 12.3064C48.7439 12.5507 50.1503 13.1482 51.2693 14.0708C52.0842 12.6111 52.7092 10.4994 52.7092 8.71179C52.7092 7.35128 52.1075 6.34961 51.1991 5.61664C51.1514 6.34678 50.7617 7.36829 50.5335 8.03324M38.4318 17.2773C38.9287 15.9055 40.1509 14.842 41.307 13.9067C41.1378 13.6751 40.8841 13.1017 40.7784 12.8302C39.3683 12.4013 38.1206 11.5986 37.1504 10.536L37.1272 10.6278C36.9502 11.4262 36.9081 12.2486 37.0024 13.0609C37.3358 13.1234 37.6368 13.3004 37.8534 13.5614C38.0701 13.8223 38.1886 14.1508 38.1886 14.49C38.1886 14.9151 37.8187 15.5237 37.5316 15.7898C37.8434 16.4633 38.0566 16.7881 38.4296 17.2773M38.3445 18.4289C37.7493 17.8394 37.342 16.6642 36.9574 15.9262C36.8843 15.938 36.8104 15.9443 36.7363 15.9449C35.9325 15.9449 35.0904 15.2703 35.2808 14.4897C35.3863 14.0577 35.6845 13.7754 36.17 13.5393C36.0566 12.6445 36.0294 11.3583 36.2372 10.428C36.2938 10.1616 36.4228 10.0369 36.5064 9.78375C35.6193 8.4856 35.0467 6.77929 35.0467 5.09227C35.0467 5.03048 35.0496 4.96955 35.0513 4.90804C33.5524 5.65972 32.4286 6.84392 32.4286 8.7081C32.4286 12.8316 34.8038 16.8768 38.3372 18.4621L38.3448 18.4286M47.0331 12.7315C46.5796 14.0302 45.3418 14.963 43.8869 14.963C43.1395 14.9634 42.4138 14.7118 41.8271 14.2488C40.6574 15.1598 39.5965 16.76 39.0568 18.1483C39.2989 18.4091 39.4678 18.6231 39.739 18.8569C40.5573 19.0701 41.6843 18.8569 42.57 18.8569C46.1329 18.8569 49.2884 17.2719 51.0976 14.4925C49.8947 13.6592 48.4758 12.8667 47.0331 12.7346" fill="#373535"/>
<path d="M36.6677 9.34355C36.9384 8.74359 37.2816 8.17904 37.6895 7.66248C37.6273 7.49507 37.6064 7.3151 37.6287 7.13788C37.6509 6.96067 37.7157 6.79146 37.8175 6.64468C37.9193 6.4979 38.055 6.3779 38.2131 6.29488C38.3713 6.21187 38.5472 6.1683 38.7258 6.1679C38.8656 6.16805 39.0041 6.1948 39.1339 6.2467C40.9664 4.8502 43.3787 4.24136 45.8032 4.7833C46.0228 4.83365 46.2402 4.89255 46.4552 4.95988C44.0592 4.62769 41.5837 5.36237 39.7467 6.84476C39.8028 6.97684 39.8334 7.12252 39.8334 7.27472C39.8331 7.56826 39.7164 7.84968 39.5089 8.05724C39.3013 8.2648 39.0199 8.38154 38.7263 8.38184C38.5907 8.3817 38.4562 8.35672 38.3295 8.30814C37.9146 8.86538 37.5756 9.48102 37.3261 10.1448C38.1986 11.085 39.2694 11.8285 40.4652 12.2754C40.4624 12.2188 40.4567 12.1621 40.4567 12.104C40.4567 10.2608 41.9505 8.76646 43.7942 8.76646C45.4461 8.76646 46.814 9.96769 47.081 11.5436C47.9052 11.0192 48.6376 10.3458 49.2448 9.5686C49.097 9.39114 49.0158 9.16771 49.0152 8.93681C49.0152 8.38212 49.4653 7.9323 50.02 7.9323C50.0985 7.9323 50.1739 7.94365 50.2473 7.96066C50.5557 7.32689 50.7858 6.65512 50.9372 5.9624C48.0546 3.8281 42.4774 4.11949 42.4774 4.11949C42.4774 4.11949 38.0393 3.88791 35.0348 5.35244C35.2352 6.79798 35.8132 8.17834 36.6657 9.34327M50.6894 8.19448C50.8935 8.37815 51.0239 8.64146 51.0239 8.93709C51.0239 9.49178 50.5738 9.94189 50.0191 9.94189C49.9638 9.94093 49.9086 9.93533 49.8541 9.92516C49.2288 10.9022 48.4016 11.7341 47.4282 12.365C48.8652 12.5903 50.2154 13.1973 51.3377 14.1226C52.1526 12.6629 52.6182 10.981 52.6182 9.1902C52.6182 7.82969 52.0165 6.82803 51.1081 6.09505C51.0622 6.81024 50.9215 7.51615 50.6894 8.1942M38.5852 17.6044C39.0821 16.2325 39.9457 15.001 41.1016 14.0659C40.931 13.8328 40.7917 13.5784 40.6872 13.3092C39.2942 12.8847 38.0417 12.0921 37.0617 11.015L37.0385 11.1068C36.8611 11.9052 36.8189 12.7276 36.9135 13.5399C37.588 13.6657 38.0997 14.257 38.0997 14.969C38.0998 15.1697 38.0583 15.3682 37.9777 15.552C37.8971 15.7358 37.7792 15.9009 37.6314 16.0367C37.8936 16.5911 38.2133 17.1164 38.5852 17.6041M38.3406 18.4099C37.7454 17.8204 37.2505 17.1438 36.8661 16.406C36.793 16.4177 36.7191 16.4239 36.645 16.4244C35.8412 16.4244 35.1896 15.7725 35.1896 14.9693C35.1897 14.6961 35.2668 14.4284 35.412 14.197C35.5573 13.9656 35.7647 13.7798 36.0107 13.6609C35.8975 12.7422 35.9433 11.8108 36.1459 10.9076C36.2026 10.6417 36.278 10.3821 36.3613 10.1281C35.4742 8.83052 34.9549 7.26169 34.9549 5.57155C34.9549 5.50976 34.9577 5.44881 34.9591 5.38787C33.4603 6.13899 32.3365 7.32376 32.3365 9.18766C32.3365 13.3117 34.799 16.8575 38.3326 18.4431L38.3403 18.4096M46.9427 13.208C46.4892 14.5067 45.2514 15.4395 43.7965 15.4395C43.0491 15.4399 42.3234 15.1882 41.7367 14.7252C40.567 15.6362 39.6841 16.8779 39.145 18.2665C39.3867 18.5273 39.6452 18.7724 39.9168 19.0034C40.7354 19.2166 41.5939 19.3308 42.4796 19.3308C46.0425 19.3308 49.1745 17.4884 50.9839 14.7122C49.781 13.8788 48.3854 13.3403 46.9427 13.2085" fill="#1287B1"/>
<path d="M47.0591 12.35L50.143 11.6145L47.0478 11.4566L49.5667 9.53153L46.7085 10.5562L48.6509 7.86433L45.9682 9.64999L46.9035 6.499L45.0612 9.09616L45.0192 5.81393L43.807 8.73733L42.7962 5.77907L42.8509 9.26395L41.1041 6.14046L42.0494 9.45726L39.2158 7.39665L41.4352 10.1857L37.9205 8.89207L40.6968 10.9462L37.1368 11.0556L40.7767 11.9949L37.1337 12.7829L40.7297 13.0436L37.6969 14.9852L40.8195 13.8531L38.6529 16.5968L41.3909 14.386L40.4051 18.0707L42.5187 15.0742L42.2225 18.6132L43.4223 15.4047L44.4436 18.7767L44.6919 15.3945L46.2077 18.2799L45.312 14.9792L48.0877 17.1294L46.2958 14.388L49.3411 15.5744L47.0127 13.2862L50.135 13.5317L47.0591 12.35Z" fill="white"/>
<g opacity="0.35">
<path d="M14.2315 18.2504C23.7948 8.68713 31.4326 5.73511 38.3644 4.39019C39.2816 4.21163 39.4551 2.20773 39.4551 2.20773C39.4551 2.20773 39.5835 3.68386 40.2254 3.87632C40.8674 4.06878 41.7013 1.56573 41.7013 1.56573C41.7013 1.56573 40.9312 3.81227 41.7013 3.94095C42.4714 4.06963 43.8838 1.75847 43.8838 1.75847C43.8838 1.75847 43.3064 3.74821 43.6916 3.87632C44.0768 4.00443 46.0016 0.985239 46.0016 0.985239C46.0016 0.985239 44.8463 2.97498 45.9376 3.16772C47.0288 3.36046 48.6209 1.80722 48.6209 1.80722C48.6209 1.80722 47.3692 3.22583 47.927 3.42168C50.3023 4.25641 52.224 1.16976 52.224 1.16976C52.224 1.16976 51.779 2.52319 50.6234 3.99934C53.1262 4.64104 54.9884 0.870161 54.9884 0.870161L53.129 4.64076C54.0918 5.15464 57.9432 0.725899 57.9432 0.725899C57.9432 0.725899 55.9535 4.1918 54.7982 4.89756C55.4399 5.41115 57.7505 3.35734 57.7505 3.35734C57.7505 3.35734 55.8891 5.66737 56.5952 5.79606C57.6221 6.6305 61.4085 1.49629 61.4085 1.49629C61.4085 1.49629 59.9327 4.51264 57.7505 6.88729C59.5744 7.79996 64.1046 1.94525 64.1046 1.94525C64.1046 1.94525 63.9762 3.80659 60.7028 6.75889C63.1418 6.43804 66.2865 1.81685 66.2865 1.81685C66.2865 1.81685 65.1312 5.28274 62.3711 7.72145C64.7662 7.47202 68.5965 1.56006 68.5965 1.56006C68.5965 1.56006 67.1207 5.66765 64.104 8.04231C67.4415 8.78038 72.2552 3.80631 72.2552 3.80631C72.2552 3.80631 70.3618 7.33654 67.8902 8.78066C70.6504 9.83959 74.4371 5.4752 74.4371 5.4752C74.4371 5.4752 70.6504 11.316 64.6174 11.0589C62.6378 10.9748 56.6527 5.05344 43.822 5.53926C26.8777 6.18153 23.2837 13.3667 14.2307 18.2475" fill="#373535"/>
</g>
<path d="M14.6235 17.5239C24.1868 7.96069 31.8243 5.00895 38.7561 3.66375C39.6736 3.48518 39.8473 1.48127 39.8473 1.48127C39.8473 1.48127 39.9754 2.95516 40.6177 3.14988C41.26 3.3446 42.0936 0.839846 42.0936 0.839846C42.0936 0.839846 41.3235 3.08638 42.0936 3.21449C42.8637 3.34261 44.2761 1.03203 44.2761 1.03203C44.2761 1.03203 43.6987 3.02176 44.0833 3.14988C44.468 3.27799 46.3939 0.258799 46.3939 0.258799C46.3939 0.258799 45.2386 2.24854 46.3299 2.44128C47.4211 2.63402 49.0132 1.08078 49.0132 1.08078C49.0132 1.08078 47.7615 2.49939 48.3193 2.69524C50.6945 3.52969 52.6154 0.443317 52.6154 0.443317C52.6154 0.443317 52.1704 1.79675 51.0154 3.2729C53.5182 3.91489 55.3804 0.143721 55.3804 0.143721L53.5153 3.91487C54.4782 4.42506 58.329 2.86102e-05 58.329 2.86102e-05C58.329 2.86102e-05 56.3398 3.46535 55.1845 4.1714C55.8262 4.68499 58.1368 2.63118 58.1368 2.63118C58.1368 2.63118 56.2755 4.94178 56.9815 5.06989C58.0084 5.90462 61.7949 0.770126 61.7949 0.770126C61.7949 0.770126 60.321 3.78677 58.1368 6.16114C59.9607 7.07382 64.4909 1.21909 64.4909 1.21909C64.4909 1.21909 64.3625 3.08072 61.0891 6.03302C63.5281 5.71188 66.6728 1.09069 66.6728 1.09069C66.6728 1.09069 65.5176 4.55659 62.7574 6.99558C65.1525 6.74615 68.9829 0.834188 68.9829 0.834188C68.9829 0.834188 67.507 4.94178 64.4904 7.31644C67.8279 8.05451 72.6415 3.08072 72.6415 3.08072C72.6415 3.08072 70.7481 6.61039 68.2765 8.05451C71.0367 9.11344 74.8234 4.74903 74.8234 4.74903C74.8234 4.74903 71.0367 10.5899 65.0031 10.3328C63.0241 10.2483 57.0365 4.32388 44.208 4.81309C27.2641 5.4548 23.67 12.6431 14.6204 17.5208" fill="#373535"/>
<g opacity="0.35">
<path d="M13.9812 19.2962C19.0355 21.8316 23.657 18.9113 29.4814 20.5527C33.9096 21.801 39.3011 23.3398 46.6175 22.2806C53.934 21.2214 60.1923 18.0449 63.1772 12.3645C64.1077 9.82966 67.8942 12.9427 67.8942 12.9427C67.8942 12.9427 65.1346 11.7874 65.2015 12.3333C65.2684 12.8792 69.3411 14.772 69.3411 14.772C69.3411 14.772 65.6508 13.6167 65.8752 14.4829C66.0997 15.3491 70.4959 18.8152 70.4959 18.8152C70.4959 18.8152 65.5221 15.0285 65.1049 15.5415C64.6876 16.0545 67.2227 18.1412 67.2227 18.1412C67.2227 18.1412 63.0187 15.5415 61.5426 16.3082C60.4808 16.8589 65.9076 20.4198 65.9076 20.4198C65.9076 20.4198 62.3773 17.7237 61.5426 18.43C60.7079 19.1364 65.5221 24.9123 65.5221 24.9123C65.5221 24.9123 60.0628 19.0071 59.5186 19.2962C58.9744 19.5853 61.0265 22.4092 61.0265 22.4092C61.0265 22.4092 58.3338 19.4567 57.5932 19.9703C56.8525 20.4838 61.444 28.1531 61.444 28.1531C61.444 28.1531 56.4696 20.2911 54.4161 21.6063C57.6416 28.6826 56.4379 29.6936 56.4379 29.6936C56.4379 29.6936 56.0263 22.4744 52.0091 22.6655C49.9874 22.7618 52.9717 28.0565 52.9717 28.0565C52.9717 28.0565 50.2223 23.2205 48.3956 23.3168C51.7671 29.6942 50.5653 32.2925 50.5653 32.2925C50.5653 32.2925 51.1228 26.8431 46.5501 23.8106C48.2827 25.3505 45.4628 32.2925 45.4628 32.2925C45.4628 32.2925 47.9435 22.0603 43.6332 24.0161C42.9521 24.3236 43.585 29.1185 43.585 29.1185C43.585 29.1185 42.7186 23.6306 41.4196 23.9197C40.6619 24.0878 36.6056 31.5252 36.6056 31.5252C36.6056 31.5252 39.9275 23.4863 38.9165 23.8233C38.1801 24.0691 36.7984 27.3856 36.7984 27.3856C36.7984 27.3856 37.4721 24.1119 36.7984 23.9197C36.1246 23.7275 32.3696 27.3856 32.3696 27.3856C32.3696 27.3856 35.1615 24.1119 34.6802 23.4381C33.9507 22.4169 33.093 22.369 32.0811 22.7644C30.6072 23.3398 28.6155 26.0376 28.6155 26.0376C28.6155 26.0376 30.5984 23.306 30.2518 22.2828C29.6954 20.6389 23.9943 25.4574 23.9943 25.4574C23.9943 25.4574 27.3638 22.2828 26.5934 21.6063C25.823 20.9297 21.6418 21.1409 20.3357 21.1372C16.4849 21.1253 15.1504 20.2217 13.9815 19.2959" fill="#373535"/>
</g>
<path d="M13.7885 18.7186C18.8428 21.254 23.464 18.3337 29.2884 19.9754C33.7165 21.2231 39.1084 22.7621 46.4251 21.7029C53.7418 20.6437 60.0018 17.4669 62.9842 11.7871C63.9147 9.25203 67.7012 12.3645 67.7012 12.3645C67.7012 12.3645 64.9416 11.2095 65.0085 11.7551C65.0754 12.3007 69.1481 14.1938 69.1481 14.1938C69.1481 14.1938 65.4577 13.0388 65.6822 13.9052C65.9067 14.7717 70.3034 18.2373 70.3034 18.2373C70.3034 18.2373 65.3291 14.4506 64.9124 14.9642C64.4958 15.4778 67.0305 17.5633 67.0305 17.5633C67.0305 17.5633 62.8263 14.9642 61.3504 15.7303C60.2884 16.2813 65.7148 19.8419 65.7148 19.8419C65.7148 19.8419 62.1846 17.1492 61.3504 17.8521C60.5163 18.5551 65.3299 24.3344 65.3299 24.3344C65.3299 24.3344 59.8737 18.4295 59.3284 18.7183C58.783 19.0071 60.8368 21.831 60.8368 21.831C60.8368 21.831 58.1408 18.8787 57.403 19.3923C56.6652 19.9059 61.2538 27.5752 61.2538 27.5752C61.2538 27.5752 56.2794 19.7126 54.2259 21.0286C57.4514 28.1047 56.2477 29.1157 56.2477 29.1157C56.2477 29.1157 55.8361 21.8965 51.8189 22.0878C49.7972 22.1842 52.7815 27.4789 52.7815 27.4789C52.7815 27.4789 50.0321 22.6425 48.2057 22.7389C51.5774 29.1197 50.3751 31.7148 50.3751 31.7148C50.3751 31.7148 50.9326 26.2652 46.3599 23.2327C48.0926 24.7729 45.2726 31.7148 45.2726 31.7148C45.2726 31.7148 47.7539 21.4827 43.4436 23.4384C42.7625 23.7463 43.3954 28.5409 43.3954 28.5409C43.3954 28.5409 42.5281 23.0535 41.2294 23.3421C40.4715 23.5101 36.4152 30.9476 36.4152 30.9476C36.4152 30.9476 39.7371 22.9087 38.726 23.246C37.9897 23.4912 36.6079 26.8077 36.6079 26.8077C36.6079 26.8077 37.2819 23.5345 36.6079 23.3421C35.9339 23.1496 32.1794 26.8077 32.1794 26.8077C32.1794 26.8077 34.9713 23.5345 34.4895 22.8605C33.7599 21.8393 32.9022 21.7919 31.8903 22.187C30.4165 22.7624 28.4245 25.4599 28.4245 25.4599C28.4245 25.4599 30.4074 22.7281 30.061 21.7052C29.5044 20.0612 23.8035 24.8797 23.8035 24.8797C23.8035 24.8797 27.1731 21.7052 26.4027 21.0289C25.6323 20.3526 21.451 20.5635 20.1449 20.5595C16.2941 20.5473 14.96 19.644 13.7911 18.7183" fill="#373535"/>
</svg>
